<?xml version="1.0" encoding="UTF-8" standalone="no"?>
<!-- Created with Inkscape (http://www.inkscape.org/) -->

<svg
   version="1.1"
   id="svg2502"
   xml:space="preserve"
   width="682.66669"
   height="682.66669"
   viewBox="0 0 682.66669 682.66669"
   xmlns="http://www.w3.org/2000/svg"
   xmlns:svg="http://www.w3.org/2000/svg"><defs
     id="defs2506"><clipPath
       clipPathUnits="userSpaceOnUse"
       id="clipPath2516"><path
         d="M 0,512 H 512 V 0 H 0 Z"
         id="path2514" /></clipPath></defs><g
     id="g2508"
     transform="matrix(1.3333333,0,0,-1.3333333,0,682.66667)"><g
       id="g2510"><g
         id="g2512"
         clip-path="url(#clipPath2516)"><g
           id="g2518"
           transform="translate(305.5513,256)"><path
             d="m 0,0 c 0,-27.338 -22.185,-49.5 -49.551,-49.5 -27.367,0 -49.552,22.162 -49.552,49.5 0,27.338 22.185,49.5 49.552,49.5 C -22.185,49.5 0,27.338 0,0 Z"
             style="fill:none;stroke:#000000;stroke-width:40;stroke-linecap:round;stroke-linejoin:round;stroke-miterlimit:10;stroke-dasharray:none;stroke-opacity:1"
             id="path2520" /></g><g
           id="g2522"
           transform="translate(256,305.5)"><path
             d="M 0,0 V 186.5"
             style="fill:none;stroke:#000000;stroke-width:40;stroke-linecap:round;stroke-linejoin:round;stroke-miterlimit:10;stroke-dasharray:none;stroke-opacity:1"
             id="path2524" /></g><g
           id="g2526"
           transform="translate(119.103,69.5)"><path
             d="m 0,0 c 0,-27.338 -22.185,-49.5 -49.552,-49.5 -27.366,0 -49.551,22.162 -49.551,49.5 0,27.338 22.185,49.5 49.551,49.5 C -22.185,49.5 0,27.338 0,0 Z"
             style="fill:none;stroke:#000000;stroke-width:40;stroke-linecap:round;stroke-linejoin:round;stroke-miterlimit:10;stroke-dasharray:none;stroke-opacity:1"
             id="path2528" /></g><g
           id="g2530"
           transform="translate(69.5513,119)"><path
             d="M 0,0 V 373"
             style="fill:none;stroke:#000000;stroke-width:40;stroke-linecap:round;stroke-linejoin:round;stroke-miterlimit:10;stroke-dasharray:none;stroke-opacity:1"
             id="path2532" /></g><g
           id="g2534"
           transform="translate(392.897,442.5)"><path
             d="M 0,0 C 0,27.338 22.185,49.5 49.552,49.5 76.918,49.5 99.103,27.338 99.103,0 99.103,-27.338 76.918,-49.5 49.552,-49.5 22.185,-49.5 0,-27.338 0,0 Z"
             style="fill:none;stroke:#000000;stroke-width:40;stroke-linecap:round;stroke-linejoin:round;stroke-miterlimit:10;stroke-dasharray:none;stroke-opacity:1"
             id="path2536" /></g><g
           id="g2538"
           transform="translate(442.4487,393)"><path
             d="M 0,0 V -373"
             style="fill:none;stroke:#000000;stroke-width:40;stroke-linecap:round;stroke-linejoin:round;stroke-miterlimit:10;stroke-dasharray:none;stroke-opacity:1"
             id="path2540" /></g><g
           id="g2542"
           transform="translate(256,206.5)"><path
             d="M 0,0 V -186.5"
             style="fill:none;stroke:#000000;stroke-width:40;stroke-linecap:round;stroke-linejoin:round;stroke-miterlimit:10;stroke-dasharray:none;stroke-opacity:1"
             id="path2544" /></g></g></g></g></svg>
