<svg clip-rule="evenodd" fill-rule="evenodd" height="512" stroke-linejoin="round" stroke-miterlimit="2" viewBox="0 0 32 32" width="512" xmlns="http://www.w3.org/2000/svg"><path d="m23.829 17.788c-2.952 0-5.349 2.397-5.349 5.349 0 2.953 2.397 5.35 5.349 5.35s5.35-2.397 5.35-5.35c0-2.952-2.398-5.349-5.35-5.349zm0 2c1.849 0 3.35 1.501 3.35 3.349 0 1.849-1.501 3.35-3.35 3.35s-3.349-1.501-3.349-3.35c0-1.848 1.5-3.349 3.349-3.349z"/><path d="m19.722 22.108c-2.447-.612-5.009-.591-7.445.059-.01.003-.015.004-.015.004l.516 1.933s.005-.002.015-.004c2.109-.563 4.326-.581 6.444-.052z"/><path d="m8.171 17.788c-2.952 0-5.35 2.397-5.35 5.349 0 2.953 2.398 5.35 5.35 5.35s5.349-2.397 5.349-5.35c0-2.952-2.397-5.349-5.349-5.349zm0 2c1.849 0 3.349 1.501 3.349 3.349 0 1.849-1.5 3.35-3.349 3.35s-3.35-1.501-3.35-3.35c0-1.848 1.501-3.349 3.35-3.349z"/><path d="m16 4.688 4.711-1.451c1.042-.322 2.171-.203 3.124.328s1.648 1.429 1.924 2.485l2.209 8.467c.083.318.004.657-.211.906s-.538.376-.865.341c-7.24-.786-14.544-.786-21.784 0-.326.035-.65-.092-.865-.341-.214-.249-.293-.588-.21-.906 0 0 1.32-5.06 2.209-8.467.275-1.056.97-1.954 1.923-2.485s2.082-.65 3.125-.328zm7.823 1.866c-.137-.527-.485-.976-.961-1.242-.477-.265-1.041-.325-1.563-.164-2.271.7-5.005 1.542-5.005 1.542-.191.059-.397.059-.588 0 0 0-2.734-.842-5.005-1.542-.521-.161-1.086-.101-1.562.164-.477.266-.824.715-.962 1.242l-1.846 7.076c6.432-.607 12.907-.607 19.338 0z"/><path d="m30.054 14.132s-.654-.08-1.677-.206c-8.22-1.009-16.533-1.011-24.754-.007-1.062.13-1.744.213-1.744.213-.548.067-.939.566-.872 1.114s.566.938 1.114.871c0 0 .682-.083 1.745-.213 8.059-.984 16.208-.982 24.267.008 1.024.125 1.677.205 1.677.205.548.068 1.047-.322 1.114-.87.068-.548-.322-1.047-.87-1.115z"/></svg>